PathFileType	4	(X/Y/Z)	Kaydara																																																																																																																																																																																																																																																	
DataRate	CameraRate	NumFrames	NumMarkers	Units	OrigDataRate	OrigDataStartFrame	OrigNumFrames																																																																																																																																																																																																																																													
30	30	4	41	mm	30	235	273																																																																																																																																																																																																																																													
Frame#	Time	SALE_LFHD			SALE_RFHD			SALE_LBHD			SALE_RBHD			SALE_LFTShould			SALE_RFTShould			SALE_LRRShould			SALE_RRRShould			SALE_T10			SALE_STRN			SALE_TRUN			SALE_LSHO			SALE_LUPA			SALE_LELB			SALE_LFRM			SALE_LWRA			SALE_LWRB			SALE_LFIN			SALE_RSHO			SALE_RUPA			SALE_RELB			SALE_RFRM			SALE_RWRB			SALE_RFIN			SALE_LFWT			SALE_RFWT			SALE_LBWT			SALE_RBWT			SALE_LTHI			SALE_LKNE			SALE_RWRA			SALE_LSHN			SALE_LANK			SALE_LHEE			SALE_LTOE			SALE_RTHI			SALE_RKNE			SALE_RSHN			SALE_RANK			SALE_RHEE			SALE_RTOE																																																																																																																										
		X1	Y1	Z1	X2	Y2	Z2	X3	Y3	Z3	X4	Y4	Z4	X5	Y5	Z5	X6	Y6	Z6	X7	Y7	Z7	X8	Y8	Z8	X9	Y9	Z9	X10	Y10	Z10	X11	Y11	Z11	X12	Y12	Z12	X13	Y13	Z13	X14	Y14	Z14	X15	Y15	Z15	X16	Y16	Z16	X17	Y17	Z17	X18	Y18	Z18	X19	Y19	Z19	X20	Y20	Z20	X21	Y21	Z21	X22	Y22	Z22	X23	Y23	Z23	X24	Y24	Z24	X25	Y25	Z25	X26	Y26	Z26	X27	Y27	Z27	X28	Y28	Z28	X29	Y29	Z29	X30	Y30	Z30	X31	Y31	Z31	X32	Y32	Z32	X33	Y33	Z33	X34	Y34	Z34	X35	Y35	Z35	X36	Y36	Z36	X37	Y37	Z37	X38	Y38	Z38	X39	Y39	Z39	X40	Y40	Z40	X41	Y41	Z41																																																																																																																							Y81	Z81
																																																																																																																																																																																																																																																				
205	7.8	251.44848	1481.39832	1208.37135	122.31567	1488.82614	1221.75331	244.24152	1571.76208	1112.1312	118.64836	1574.45068	1128.70728	237.20457	1327.24594	1046.9368	96.59074	1329.02878	1061.84891	222.80567	1394.76105	942.4308	74.02506	1402.34711	965.47852	136.09621	1249.12857	874.6624	163.70802	1257.30042	1097.39586	162.03091	1171.56662	1138.41385	345.42488	1356.7868	968.05008	381.34705	1142.80518	936.90109	365.09773	1034.34448	917.18475	401.6935	929.45313	937.2406	356.93336	786.85738	1008.8118	413.91582	783.03886	957.17514	419.36546	736.9075	1001.8322	-14.92112	1367.42828	1012.16614	-56.95769	1137.5798	954.61792	-76.37933	1037.27539	1007.29797	-69.45263	923.16986	1003.64006	-76.20107	788.20984	1058.36403	-72.30363	752.29515	1115.65231	278.94693	942.42569	1090.85983	2.85727	916.01906	1069.30092	233.89236	981.21834	913.09654	55.80362	974.77516	901.20377	298.16074	617.9668	1002.4659	267.57755	472.07191	1118.6705	-19.95271	803.26653	1105.07523	257.16959	278.53886	1162.67639	247.22906	89.27543	1162.07047	208.53247	38.81732	1104.84268	213.2926	55.25592	1300.77423	33.47818	676.35094	887.41318	45.87944	505.57682	963.96431	103.75669	321.54461	864.28383	61.37623	143.43313	674.35135	63.25886	46.6943	754.55116	111.95683	119.5513	586.35853																																																																																																																							0	-0.00191
206	7.833	256.03331	1487.71835	1235.35843	127.18161	1497.01614	1249.83681	248.81435	1576.49246	1137.48177	123.55002	1580.90988	1155.26108	239.5713	1334.81155	1078.53767	98.84406	1336.03287	1091.23131	225.4957	1398.19885	972.38747	77.08618	1406.01242	993.84262	139.4375	1252.08984	905.1342	165.29324	1265.63416	1128.56857	163.13583	1180.12993	1170.35973	347.92637	1362.2377	999.60648	384.74171	1149.07677	970.87791	368.19992	1040.80475	950.54695	404.5903	935.46799	977.20268	359.21654	797.16515	1056.65176	416.60221	790.17715	1006.35521	422.08172	746.9648	1053.97629	-12.20067	1373.51303	1040.67772	-55.60216	1146.35742	981.90643	-74.80824	1044.41658	1031.23795	-67.98931	930.35225	1025.92163	-75.86657	795.2137	1078.71597	-70.6726	754.73877	1133.39935	281.10842	946.89423	1122.55577	5.139	918.19359	1099.04182	236.48342	985.26329	944.91142	59.36948	976.52367	931.85654	302.52218	623.69869	1021.86111	272.12835	473.01292	1133.10036	-19.7444	808.1855	1125.72891	259.11007	278.20116	1170.74638	248.22983	89.11136	1163.85185	209.62591	39.23754	1105.05211	213.82027	54.06212	1301.90247	37.77015	668.89389	930.64018	42.05471	500.75989	1019.17549	96.54516	318.59467	909.56345	59.85034	163.09885	699.06273	62.5615	46.5271	762.9921	113.94123	151.16988	613.55709																																																																																																																							0	-0.00191
207	7.867	259.64851	1492.5737	1261.92635	131.01708	1503.32397	1277.18788	252.18765	1578.85513	1161.68053	127.19668	1584.57321	1180.34592	241.12604	1336.30295	1109.30634	100.63402	1337.37976	1121.12778	228.74556	1398.32581	1003.26874	79.95529	1406.05392	1022.13646	144.03376	1251.65031	935.11742	166.54179	1267.57034	1159.70497	163.81662	1181.52657	1200.53688	350.93941	1363.39996	1032.30446	388.87257	1150.51086	1004.36623	372.50435	1042.13715	984.17503	408.2613	936.3604	1017.55562	361.02402	803.36792	1105.13336	419.04823	792.98927	1055.87578	424.79397	754.06242	1106.633	-9.92487	1373.67371	1068.29147	-54.58978	1148.00262	1007.22786	-75.86276	1045.46532	1055.01976	-69.05685	931.41167	1048.13835	-77.76846	796.04584	1100.05112	-70.99815	752.72209	1152.9129	284.05188	946.53542	1152.27104	8.008	915.86792	1127.4012	239.13443	985.44357	974.31	61.80727	973.15376	959.45641	305.82527	627.17686	1043.15285	275.53679	472.55203	1148.03078	-21.98704	808.77449	1147.73247	260.66225	276.77341	1179.22142	247.22431	88.44418	1166.27663	208.21001	39.92684	1106.03889	212.43122	53.29326	1303.0719	39.94984	656.06148	973.1562	33.09784	494.80961	1072.74986	86.3983	314.212	960.71426	57.67225	181.37632	735.09537	61.40612	47.80656	776.05309	115.98619	182.75114	653.71361																																																																																																																							0	-0.00191
208	7.9	262.18897	1495.49713	1289.06586	133.77385	1507.25128	1304.82422	254.36077	1579.70367	1186.89331	129.60075	1586.3382	1206.27785	242.53633	1333.69568	1139.24782	101.15356	1334.02618	1149.18663	231.97189	1397.85553	1032.88551	81.96661	1405.1889	1049.97032	148.45354	1250.97336	963.31955	167.37419	1263.67142	1188.83011	164.31803	1177.26395	1228.60718	353.71727	1362.07977	1064.57108	393.186	1147.80945	1039.14658	378.00926	1038.5817	1020.8461	412.54948	933.98567	1059.52103	363.00346	806.12816	1152.54379	422.01389	792.7774	1105.25719	427.42413	758.23013	1158.59573	-8.46451	1370.68939	1095.15121	-52.5625	1144.49997	1030.22926	-76.51757	1042.15073	1077.26334	-70.50124	928.17352	1069.65858	-79.72148	792.53685	1120.77225	-73.74501	749.11331	1173.53905	285.74228	946.87416	1180.2449	10.1085	912.25494	1153.59962	240.51525	984.74167	1000.93521	62.7553	966.38397	983.89938	310.58344	631.60774	1061.50467	280.71274	473.33946	1161.39038	-25.04817	805.43549	1169.39987	264.43964	276.06663	1185.88821	248.60092	88.04326	1167.20901	208.6841	40.32639	1106.12366	212.95681	53.01376	1303.19534	40.56734	642.26593	1015.5146	25.82735	491.67866	1126.86363	79.37418	312.88889	1016.12473	54.76445	197.94373	781.35498	55.30607	57.39202	801.81046	115.5176	209.09952	703.32108																																																																																																																							0	-0.00191
